<svg width="375" height="812" viewBox="0 0 375 812" fill="none" xmlns="http://www.w3.org/2000/svg">
<g clip-path="url(#clip0_8_124)">
<rect width="375" height="812" rx="23" fill="#F24C05"/>
<path d="M41.6309 514.1H34.9512C33.252 509.354 30.3223 504.549 26.1621 499.686C22.002 494.822 17.8711 491.951 13.7695 491.072C12.0117 490.662 9.55078 490.428 6.38672 490.369C3.28125 490.252 0.703125 490.193 -1.34766 490.193H-19.4531V538.357H-6.62109C-3.39844 538.357 -0.46875 537.977 2.16797 537.215C4.80469 536.453 7.20703 534.988 9.375 532.82C10.7227 531.473 12.0703 529.1 13.418 525.701C14.8242 522.303 15.7324 519.344 16.1426 516.824H22.8223V568.855H16.1426C15.791 566.395 14.8828 563.318 13.418 559.627C12.0117 555.877 10.6641 553.299 9.375 551.893C7.44141 549.783 5.15625 548.348 2.51953 547.586C-0.117188 546.766 -3.16406 546.355 -6.62109 546.355H-19.4531V582.303C-19.4531 586.053 -19.1895 589.041 -18.6621 591.268C-18.0762 593.436 -17.0215 595.105 -15.498 596.277C-14.0332 597.391 -12.041 598.123 -9.52148 598.475C-6.94336 598.826 -3.45703 599.002 0.9375 599.002C2.98828 599.002 5.44922 598.973 8.32031 598.914C11.1914 598.855 13.7109 598.68 15.8789 598.387C18.3398 598.094 20.625 597.654 22.7344 597.068C24.9023 596.482 26.5137 595.633 27.5684 594.52C30.3809 591.648 33.5449 587.283 37.0605 581.424C40.5762 575.506 42.8906 571.082 44.0039 568.152H50.4199L48.0469 607H-68.9355V600.145C-67.2949 600.027 -65.0684 599.793 -62.2559 599.441C-59.4434 599.09 -57.4512 598.68 -56.2793 598.211C-54.0527 597.273 -52.5586 596.102 -51.7969 594.695C-51.0352 593.23 -50.6543 591.385 -50.6543 589.158V501.18C-50.6543 499.07 -50.9766 497.342 -51.6211 495.994C-52.2656 494.588 -53.8184 493.328 -56.2793 492.215C-57.8027 491.512 -59.9414 490.867 -62.6953 490.281C-65.4492 489.695 -67.5293 489.314 -68.9355 489.139V482.283H41.6309V514.1ZM174.191 495.115C181.808 500.096 187.961 506.746 192.648 515.066C197.336 523.328 199.679 533.465 199.679 545.477C199.679 556.023 197.57 565.223 193.351 573.074C189.191 580.867 183.654 587.254 176.74 592.234C169.709 597.215 161.711 600.936 152.746 603.396C143.839 605.799 134.494 607 124.709 607H61.8668V600.145C63.7418 600.086 66.0855 599.91 68.898 599.617C71.7105 599.324 73.5855 598.973 74.523 598.562C76.6324 597.684 78.0973 596.512 78.9176 595.047C79.7379 593.523 80.148 591.707 80.148 589.598V501.18C80.148 499.188 79.7672 497.4 79.0055 495.818C78.2437 494.178 76.7496 492.859 74.523 491.863C72.2965 490.867 69.9234 490.193 67.4039 489.842C64.943 489.49 63.0387 489.256 61.691 489.139V482.283H128.048C135.138 482.283 142.726 483.191 150.812 485.008C158.898 486.824 166.691 490.193 174.191 495.115ZM156.261 584.5C159.132 579.812 161.212 574.246 162.502 567.801C163.849 561.297 164.523 553.826 164.523 545.389C164.523 537.127 163.644 529.598 161.886 522.801C160.129 516.004 157.55 510.203 154.152 505.398C150.754 500.594 146.505 496.873 141.408 494.236C136.369 491.6 130.627 490.281 124.181 490.281C122.13 490.281 119.787 490.34 117.15 490.457C114.572 490.516 112.638 490.574 111.349 490.633V585.291C111.349 587.4 111.613 589.275 112.14 590.916C112.726 592.498 113.693 593.904 115.041 595.135C116.388 596.365 118.029 597.332 119.962 598.035C121.955 598.68 124.533 599.002 127.697 599.002C134.318 599.002 140.002 597.771 144.748 595.311C149.494 592.85 153.332 589.246 156.261 584.5ZM329.603 564.9L325.384 607H208.314V601.639L288.909 490.369H261.575C256.009 490.369 251.995 490.545 249.534 490.896C247.073 491.189 244.759 491.834 242.591 492.83C240.071 493.768 237.288 496.258 234.241 500.301C231.195 504.285 227.122 510.965 222.025 520.34H214.905L218.773 482.283H327.23V487.645L246.634 598.914H278.011C287.855 598.914 294.534 598.533 298.05 597.771C301.624 596.951 304.232 595.516 305.872 593.465C309.212 589.422 312.288 584.998 315.101 580.193C317.972 575.33 320.609 570.232 323.011 564.9H329.603ZM469.546 489.139C467.436 489.373 465.503 489.754 463.745 490.281C461.987 490.809 460.317 491.541 458.735 492.479C456.216 493.885 453.96 495.701 451.968 497.928C450.034 500.096 448.13 502.527 446.255 505.223C442.446 510.789 438.432 516.854 434.214 523.416C430.054 529.92 425.513 537.098 420.591 544.949C417.368 549.93 415.376 553.768 414.614 556.463C413.911 559.1 413.559 563.699 413.559 570.262V587.928C413.559 590.037 413.94 591.883 414.702 593.465C415.522 595.047 417.046 596.336 419.272 597.332C420.268 597.742 422.378 598.299 425.6 599.002C428.823 599.646 431.196 600.027 432.72 600.145V607H363.198V600.145C364.839 600.027 367.182 599.793 370.229 599.441C373.335 599.09 375.503 598.68 376.733 598.211C378.901 597.273 380.366 596.043 381.128 594.52C381.948 592.938 382.358 591.033 382.358 588.807V566.834C382.358 564.9 382.329 563.201 382.27 561.736C382.212 560.271 382.007 559.041 381.655 558.045C381.245 556.932 380.542 555.525 379.546 553.826C378.55 552.068 377.261 549.812 375.679 547.059C371.167 539.148 366.802 531.648 362.583 524.559C358.364 517.469 354.35 510.818 350.542 504.607C348.55 501.385 346.528 498.807 344.477 496.873C342.485 494.881 340.434 493.27 338.325 492.039C336.743 491.16 334.809 490.486 332.524 490.018C330.298 489.549 328.276 489.256 326.46 489.139V482.283H397.915V489.139C391.352 489.314 386.929 489.783 384.643 490.545C382.358 491.248 381.216 492.244 381.216 493.533C381.216 494.178 381.626 495.467 382.446 497.4C383.325 499.334 384.848 502.322 387.016 506.365C389.009 510.174 391.909 515.418 395.718 522.098C399.585 528.777 404.214 536.6 409.604 545.564C420.737 527.928 428.384 515.623 432.544 508.65C436.704 501.619 438.784 497.312 438.784 495.73C438.784 493.738 437.554 492.215 435.093 491.16C432.69 490.105 428.764 489.432 423.315 489.139V482.283H469.546V489.139ZM-28.0664 712.41C-28.0664 717.039 -29.7949 721.053 -33.252 724.451C-36.6504 727.85 -40.6934 729.549 -45.3809 729.549C-50.127 729.549 -54.2285 727.879 -57.6855 724.539C-61.084 721.141 -62.7832 717.098 -62.7832 712.41C-62.7832 707.723 -61.084 703.68 -57.6855 700.281C-54.2285 696.824 -50.127 695.096 -45.3809 695.096C-40.6934 695.096 -36.6504 696.824 -33.252 700.281C-29.7949 703.738 -28.0664 707.781 -28.0664 712.41Z" fill="white"/>
<rect y="490" width="160" height="161" fill="#F28277"/>
<rect x="160" y="651" width="164" height="161" fill="#F28705"/>
<path d="M160 570.5C160 554.579 155.308 539.015 146.518 525.777C137.727 512.538 125.233 502.221 110.615 496.128C95.9966 490.035 79.9113 488.441 64.3928 491.547C48.8743 494.653 34.6197 502.32 23.4315 513.578C12.2433 524.836 4.62399 539.18 1.53718 554.795C-1.54964 570.411 0.0346269 586.597 6.08964 601.306C12.1446 616.015 22.3984 628.588 35.5544 637.433C48.7103 646.279 64.1775 651 80 651V570.5H160Z" fill="black"/>
<path d="M0.499999 757C7.65704 757 14.744 755.629 21.3562 752.966C27.9685 750.302 33.9765 746.398 39.0373 741.477C44.0981 736.555 48.1126 730.712 50.8514 724.282C53.5903 717.852 55 710.96 55 704C55 697.04 53.5903 690.148 50.8514 683.718C48.1126 677.288 44.0981 671.445 39.0373 666.523C33.9765 661.602 27.9685 657.698 21.3562 655.034C14.744 652.371 7.65704 651 0.5 651L0.500001 704L0.499999 757Z" fill="#0455C0"/>
<path d="M243 712L276.775 769.75H209.225L243 712Z" fill="black"/>
<path d="M265 677L299.641 735.5H230.359L265 677Z" fill="black"/>
<path d="M223 677L256 734H190L223 677Z" fill="black"/>
<path d="M-19 735V662H23V670.2H-10.1V692.8H19.5V700.9H-10.1V726.8H23V735H-19ZM40.6609 735V662H59.5609C64.2943 662 68.3609 662.9 71.7609 664.7C75.2276 666.5 77.8943 669.033 79.7609 672.3C81.6943 675.567 82.6609 679.433 82.6609 683.9V713C82.6609 717.467 81.6943 721.367 79.7609 724.7C77.8943 727.967 75.2276 730.5 71.7609 732.3C68.3609 734.1 64.2943 735 59.5609 735H40.6609ZM49.6609 727H59.5609C63.9609 727 67.3943 725.767 69.8609 723.3C72.3943 720.833 73.6609 717.4 73.6609 713V683.9C73.6609 679.567 72.3943 676.167 69.8609 673.7C67.3943 671.233 63.9609 670 59.5609 670H49.6609V727ZM100.422 735V726L133.322 670.2H100.922V662H142.422V671L109.522 726.8H143.422V735H100.422ZM177.883 735V707.7L155.883 662H165.183L179.683 692C180.483 693.667 181.116 695.1 181.583 696.3C182.049 697.433 182.349 698.267 182.483 698.8C182.616 698.267 182.916 697.433 183.383 696.3C183.916 695.1 184.583 693.667 185.383 692L199.583 662H208.883L186.883 707.7V735H177.883ZM242.844 736C240.31 736 238.277 735.267 236.744 733.8C235.277 732.333 234.544 730.367 234.544 727.9C234.544 725.3 235.277 723.233 236.744 721.7C238.277 720.167 240.31 719.4 242.844 719.4C245.377 719.4 247.377 720.167 248.844 721.7C250.377 723.233 251.144 725.3 251.144 727.9C251.144 730.367 250.377 732.333 248.844 733.8C247.377 735.267 245.377 736 242.844 736Z" fill="white"/>
<path d="M126.635 105.515C125.357 105.515 124.262 105.065 123.35 104.165C122.451 103.266 122.007 102.177 122.018 100.898C122.007 99.6437 122.451 98.5724 123.35 97.6847C124.262 96.785 125.357 96.3352 126.635 96.3352C127.842 96.3352 128.908 96.785 129.831 97.6847C130.766 98.5724 131.24 99.6437 131.251 100.898C131.24 101.751 131.015 102.526 130.577 103.224C130.151 103.923 129.588 104.479 128.89 104.893C128.203 105.308 127.452 105.515 126.635 105.515Z" fill="#0476D9"/>
<path d="M28.7521 105V68.6364H54.1072V75.7741H37.5412V83.2315H52.8111V90.3871H37.5412V97.8622H54.1072V105H28.7521Z" fill="#F28277"/>
<g filter="url(#filter0_d_8_124)">
<path d="M64.1932 105H50.7521V68.6364H64.1754C67.8804 68.6364 71.0705 69.3643 73.7457 70.8203C76.4328 72.2644 78.5043 74.3478 79.9602 77.0703C81.4162 79.781 82.1442 83.0244 82.1442 86.8004C82.1442 90.5883 81.4162 93.8435 79.9602 96.5661C78.5161 99.2886 76.4505 101.378 73.7635 102.834C71.0765 104.278 67.8864 105 64.1932 105ZM59.5412 97.5071H63.8558C65.8918 97.5071 67.6141 97.1638 69.0227 96.4773C70.4432 95.7789 71.5144 94.6484 72.2365 93.0859C72.9704 91.5116 73.3374 89.4164 73.3374 86.8004C73.3374 84.1844 72.9704 82.1011 72.2365 80.5504C71.5026 78.9879 70.4195 77.8634 68.9872 77.1768C67.5668 76.4785 65.8149 76.1293 63.7315 76.1293H59.5412V97.5071Z" fill="#0476D9"/>
</g>
<g filter="url(#filter1_d_8_124)">
<path d="M73.6278 105V99.9929L91.2947 75.7741H73.6456V68.6364H102.41V73.6435L84.7429 97.8622H102.392V105H73.6278Z" fill="#F28705"/>
</g>
<g filter="url(#filter2_d_8_124)">
<path d="M92.9411 68.6364H102.76L110.448 83.853H110.768L118.456 68.6364H128.275L114.976 92.8551V105H106.24V92.8551L92.9411 68.6364Z" fill="#F2F2F2"/>
</g>
</g>
<defs>
<filter id="filter0_d_8_124" x="42.7522" y="66.6364" width="39.3921" height="40.3636" filterUnits="userSpaceOnUse" color-interpolation-filters="sRGB">
<feFlood flood-opacity="0" result="BackgroundImageFix"/>
<feColorMatrix in="SourceAlpha" type="matrix" values="0 0 0 0 0 0 0 0 0 0 0 0 0 0 0 0 0 0 127 0" result="hardAlpha"/>
<feOffset dx="-6"/>
<feGaussianBlur stdDeviation="1"/>
<feComposite in2="hardAlpha" operator="out"/>
<feColorMatrix type="matrix" values="0 0 0 0 0 0 0 0 0 0 0 0 0 0 0 0 0 0 0.25 0"/>
<feBlend mode="normal" in2="BackgroundImageFix" result="effect1_dropShadow_8_124"/>
<feBlend mode="normal" in="SourceGraphic" in2="effect1_dropShadow_8_124" result="shape"/>
</filter>
<filter id="filter1_d_8_124" x="63.6279" y="64.6364" width="38.782" height="44.3636" filterUnits="userSpaceOnUse" color-interpolation-filters="sRGB">
<feFlood flood-opacity="0" result="BackgroundImageFix"/>
<feColorMatrix in="SourceAlpha" type="matrix" values="0 0 0 0 0 0 0 0 0 0 0 0 0 0 0 0 0 0 127 0" result="hardAlpha"/>
<feOffset dx="-6"/>
<feGaussianBlur stdDeviation="2"/>
<feComposite in2="hardAlpha" operator="out"/>
<feColorMatrix type="matrix" values="0 0 0 0 0 0 0 0 0 0 0 0 0 0 0 0 0 0 0.25 0"/>
<feBlend mode="normal" in2="BackgroundImageFix" result="effect1_dropShadow_8_124"/>
<feBlend mode="normal" in="SourceGraphic" in2="effect1_dropShadow_8_124" result="shape"/>
</filter>
<filter id="filter2_d_8_124" x="82.9412" y="64.6364" width="45.3337" height="44.3636" filterUnits="userSpaceOnUse" color-interpolation-filters="sRGB">
<feFlood flood-opacity="0" result="BackgroundImageFix"/>
<feColorMatrix in="SourceAlpha" type="matrix" values="0 0 0 0 0 0 0 0 0 0 0 0 0 0 0 0 0 0 127 0" result="hardAlpha"/>
<feOffset dx="-6"/>
<feGaussianBlur stdDeviation="2"/>
<feComposite in2="hardAlpha" operator="out"/>
<feColorMatrix type="matrix" values="0 0 0 0 0 0 0 0 0 0 0 0 0 0 0 0 0 0 0.25 0"/>
<feBlend mode="normal" in2="BackgroundImageFix" result="effect1_dropShadow_8_124"/>
<feBlend mode="normal" in="SourceGraphic" in2="effect1_dropShadow_8_124" result="shape"/>
</filter>
<clipPath id="clip0_8_124">
<rect width="375" height="812" rx="23" fill="white"/>
</clipPath>
</defs>
</svg>
