<svg width="375" height="812" viewBox="0 0 375 812" fill="none" xmlns="http://www.w3.org/2000/svg">
<g clip-path="url(#clip0_8_221)">
<rect width="375" height="812" rx="23" fill="#0455C0"/>
<rect x="31" y="-94" width="160" height="161" fill="#F28705"/>
<rect x="191" y="67" width="164" height="161" fill="#0476D9"/>
<path d="M198.193 46.583H192.626C191.21 42.6279 188.769 38.624 185.302 34.5713C181.835 30.5186 178.393 28.126 174.975 27.3936C173.51 27.0518 171.459 26.8564 168.823 26.8076C166.235 26.71 164.086 26.6611 162.377 26.6611H147.289V66.7979H157.983C160.668 66.7979 163.11 66.4805 165.307 65.8457C167.504 65.2109 169.506 63.9902 171.313 62.1836C172.436 61.0605 173.559 59.083 174.682 56.251C175.854 53.4189 176.611 50.9531 176.952 48.8535H182.519V92.2129H176.952C176.659 90.1621 175.903 87.5986 174.682 84.5225C173.51 81.3975 172.387 79.249 171.313 78.0771C169.701 76.3193 167.797 75.123 165.6 74.4883C163.403 73.8047 160.864 73.4629 157.983 73.4629H147.289V103.419C147.289 106.544 147.509 109.034 147.948 110.89C148.437 112.696 149.316 114.088 150.585 115.064C151.806 115.992 153.466 116.603 155.566 116.896C157.714 117.188 160.619 117.335 164.281 117.335C165.99 117.335 168.041 117.311 170.434 117.262C172.826 117.213 174.926 117.066 176.733 116.822C178.783 116.578 180.688 116.212 182.446 115.724C184.252 115.235 185.595 114.527 186.474 113.6C188.818 111.207 191.454 107.569 194.384 102.687C197.314 97.7549 199.242 94.0684 200.17 91.627H205.517L203.539 124H106.054V118.287C107.421 118.189 109.277 117.994 111.62 117.701C113.964 117.408 115.624 117.066 116.601 116.676C118.456 115.895 119.701 114.918 120.336 113.746C120.971 112.525 121.288 110.987 121.288 109.132V35.8164C121.288 34.0586 121.02 32.6182 120.483 31.4951C119.946 30.3232 118.652 29.2734 116.601 28.3457C115.331 27.7598 113.549 27.2227 111.254 26.7344C108.959 26.2461 107.226 25.9287 106.054 25.7822V20.0693H198.193V46.583ZM298.159 30.7627C304.507 34.9131 309.634 40.4551 313.54 47.3887C317.447 54.2734 319.4 62.7207 319.4 72.7305C319.4 81.5195 317.642 89.1855 314.126 95.7285C310.659 102.223 306.045 107.545 300.283 111.695C294.424 115.846 287.759 118.946 280.288 120.997C272.866 122.999 265.078 124 256.924 124H204.556V118.287C206.118 118.238 208.072 118.092 210.415 117.848C212.759 117.604 214.322 117.311 215.103 116.969C216.861 116.236 218.081 115.26 218.765 114.039C219.448 112.77 219.79 111.256 219.79 109.498V35.8164C219.79 34.1562 219.473 32.667 218.838 31.3486C218.203 29.9814 216.958 28.8828 215.103 28.0527C213.247 27.2227 211.27 26.6611 209.17 26.3682C207.119 26.0752 205.532 25.8799 204.409 25.7822V20.0693H259.707C265.615 20.0693 271.939 20.8262 278.677 22.3398C285.415 23.8535 291.909 26.6611 298.159 30.7627ZM283.218 105.25C285.611 101.344 287.344 96.7051 288.418 91.334C289.541 85.9141 290.103 79.6885 290.103 72.6572C290.103 65.7725 289.37 59.498 287.906 53.834C286.441 48.1699 284.292 43.3359 281.46 39.332C278.628 35.3281 275.088 32.2275 270.84 30.0303C266.641 27.833 261.856 26.7344 256.485 26.7344C254.776 26.7344 252.823 26.7832 250.625 26.8809C248.477 26.9297 246.865 26.9785 245.791 27.0273V105.909C245.791 107.667 246.011 109.229 246.45 110.597C246.939 111.915 247.744 113.087 248.867 114.112C249.99 115.138 251.358 115.943 252.969 116.529C254.629 117.066 256.778 117.335 259.414 117.335C264.932 117.335 269.668 116.31 273.623 114.259C277.578 112.208 280.777 109.205 283.218 105.25ZM417.169 88.917L413.654 124H316.095V119.532L383.258 26.8076H360.48C355.841 26.8076 352.496 26.9541 350.446 27.2471C348.395 27.4912 346.466 28.0283 344.659 28.8584C342.56 29.6396 340.24 31.7148 337.701 35.084C335.162 38.4043 331.769 43.9707 327.521 51.7832H321.588L324.811 20.0693H415.192V24.5371L348.029 117.262H374.176C382.379 117.262 387.946 116.944 390.875 116.31C393.854 115.626 396.027 114.43 397.394 112.721C400.177 109.352 402.74 105.665 405.084 101.661C407.477 97.6084 409.674 93.3604 411.676 88.917H417.169ZM523.288 25.7822C521.531 25.9775 519.919 26.2949 518.454 26.7344C516.99 27.1738 515.598 27.7842 514.28 28.5654C512.18 29.7373 510.3 31.251 508.64 33.1064C507.029 34.9131 505.442 36.9395 503.879 39.1855C500.705 43.8242 497.361 48.8779 493.845 54.3467C490.378 59.7666 486.594 65.748 482.492 72.291C479.807 76.4414 478.147 79.6396 477.512 81.8857C476.926 84.083 476.633 87.916 476.633 93.3848V108.106C476.633 109.864 476.95 111.402 477.585 112.721C478.269 114.039 479.538 115.113 481.394 115.943C482.224 116.285 483.982 116.749 486.667 117.335C489.353 117.872 491.33 118.189 492.6 118.287V124H434.665V118.287C436.032 118.189 437.986 117.994 440.525 117.701C443.113 117.408 444.919 117.066 445.945 116.676C447.751 115.895 448.972 114.869 449.607 113.6C450.29 112.281 450.632 110.694 450.632 108.839V90.5283C450.632 88.917 450.608 87.501 450.559 86.2803C450.51 85.0596 450.339 84.0342 450.046 83.2041C449.704 82.2764 449.118 81.1045 448.288 79.6885C447.458 78.2236 446.384 76.3438 445.066 74.0488C441.306 67.457 437.668 61.207 434.153 55.2988C430.637 49.3906 427.292 43.8486 424.118 38.6729C422.458 35.9873 420.774 33.8389 419.065 32.2275C417.405 30.5674 415.696 29.2246 413.938 28.1992C412.619 27.4668 411.008 26.9053 409.104 26.5146C407.248 26.124 405.564 25.8799 404.05 25.7822V20.0693H463.596V25.7822C458.127 25.9287 454.441 26.3193 452.536 26.9541C450.632 27.54 449.68 28.3701 449.68 29.4443C449.68 29.9814 450.022 31.0557 450.705 32.667C451.438 34.2783 452.707 36.7686 454.514 40.1377C456.174 43.3115 458.591 47.6816 461.765 53.248C464.988 58.8145 468.845 65.333 473.337 72.8037C482.615 58.1064 488.987 47.8525 492.453 42.042C495.92 36.1826 497.654 32.5938 497.654 31.2754C497.654 29.6152 496.628 28.3457 494.577 27.4668C492.575 26.5879 489.304 26.0264 484.763 25.7822V20.0693H523.288V25.7822ZM547.742 111.842C547.742 115.699 546.302 119.044 543.421 121.876C540.589 124.708 537.22 126.124 533.314 126.124C529.359 126.124 525.941 124.732 523.06 121.949C520.228 119.117 518.812 115.748 518.812 111.842C518.812 107.936 520.228 104.566 523.06 101.734C525.941 98.8535 529.359 97.4131 533.314 97.4131C537.22 97.4131 540.589 98.8535 543.421 101.734C546.302 104.615 547.742 107.984 547.742 111.842Z" fill="white"/>
<path d="M191 -13.5C191 -29.4214 186.308 -44.9852 177.518 -58.2234C168.727 -71.4616 156.233 -81.7794 141.615 -87.8723C126.997 -93.9652 110.911 -95.5593 95.3928 -92.4532C79.8743 -89.3471 65.6197 -81.6802 54.4315 -70.4221C43.2433 -59.164 35.624 -44.8202 32.5372 -29.2048C29.4504 -13.5893 31.0346 2.59657 37.0896 17.306C43.1446 32.0155 53.3984 44.5878 66.5544 53.4333C79.7103 62.2788 95.1775 67 111 67V-13.5H191Z" fill="black"/>
<path d="M30.5002 174C37.6573 174 44.7442 172.629 51.3565 169.966C57.9687 167.302 63.9768 163.398 69.0376 158.477C74.0984 153.555 78.1128 147.712 80.8517 141.282C83.5906 134.852 85.0002 127.96 85.0002 121C85.0002 114.04 83.5906 107.148 80.8517 100.718C78.1128 94.2875 74.0984 88.4448 69.0376 83.5233C63.9768 78.6018 57.9687 74.6979 51.3565 72.0344C44.7442 69.3709 37.6573 68 30.5002 68L30.5002 121L30.5002 174Z" fill="#F24C05"/>
<path d="M-3.5 747C3.65704 747 10.744 745.629 17.3562 742.966C23.9685 740.302 29.9765 736.398 35.0373 731.477C40.0981 726.555 44.1126 720.712 46.8514 714.282C49.5903 707.852 51 700.96 51 694C51 687.04 49.5903 680.148 46.8514 673.718C44.1126 667.288 40.0981 661.445 35.0373 656.523C29.9765 651.602 23.9685 647.698 17.3562 645.034C10.744 642.371 3.65704 641 -3.5 641L-3.5 694L-3.5 747Z" fill="#F24C05"/>
<path d="M274 128L307.775 185.75H240.225L274 128Z" fill="white"/>
<path d="M296 93L330.641 151.5H261.359L296 93Z" fill="white"/>
<path d="M254 93L287 150H221L254 93Z" fill="white"/>
<path d="M300 249V139.5H363V151.8H313.35V185.7H357.75V197.85H313.35V236.7H363V249H300ZM389.492 249V139.5H417.842C424.942 139.5 431.042 140.85 436.142 143.55C441.342 146.25 445.342 150.05 448.142 154.95C451.042 159.85 452.492 165.65 452.492 172.35V216C452.492 222.7 451.042 228.55 448.142 233.55C445.342 238.45 441.342 242.25 436.142 244.95C431.042 247.65 424.942 249 417.842 249H389.492ZM402.992 237H417.842C424.442 237 429.592 235.15 433.292 231.45C437.092 227.75 438.992 222.6 438.992 216V172.35C438.992 165.85 437.092 160.75 433.292 157.05C429.592 153.35 424.442 151.5 417.842 151.5H402.992V237ZM297.75 349V335.5L347.1 251.8H298.5V239.5H360.75V253L311.4 336.7H362.25V349H297.75ZM413.942 349V308.05L380.942 239.5H394.892L416.642 284.5C417.842 287 418.792 289.15 419.492 290.95C420.192 292.65 420.642 293.9 420.842 294.7C421.042 293.9 421.492 292.65 422.192 290.95C422.992 289.15 423.992 287 425.192 284.5L446.492 239.5H460.442L427.442 308.05V349H413.942ZM330 450.5C326.2 450.5 323.15 449.4 320.85 447.2C318.65 445 317.55 442.05 317.55 438.35C317.55 434.45 318.65 431.35 320.85 429.05C323.15 426.75 326.2 425.6 330 425.6C333.8 425.6 336.8 426.75 339 429.05C341.3 431.35 342.45 434.45 342.45 438.35C342.45 442.05 341.3 445 339 447.2C336.8 449.4 333.8 450.5 330 450.5Z" fill="white"/>
</g>
<defs>
<clipPath id="clip0_8_221">
<rect width="375" height="812" rx="23" fill="white"/>
</clipPath>
</defs>
</svg>
