<svg width="375" height="812" viewBox="0 0 375 812" fill="none" xmlns="http://www.w3.org/2000/svg">
<rect width="375" height="812" rx="23" fill="black"/>
<g filter="url(#filter0_d_8_85)">
<rect x="90" y="309" width="194" height="194" rx="25" fill="black"/>
</g>
<rect x="133" y="333" width="56" height="56" fill="#F28277"/>
<rect x="189" y="389" width="57" height="56" fill="#F28705"/>
<rect x="133" y="389" width="56" height="56" fill="black"/>
<path d="M189 333H246V389L217 361L189 333Z" fill="#F24C05"/>
<path d="M189 361C189 355.462 187.358 350.049 184.281 345.444C181.204 340.839 176.831 337.251 171.715 335.131C166.599 333.012 160.969 332.458 155.537 333.538C150.106 334.618 145.117 337.285 141.201 341.201C137.285 345.117 134.618 350.106 133.538 355.537C132.458 360.969 133.012 366.599 135.131 371.715C137.251 376.831 140.839 381.204 145.444 384.281C150.049 387.358 155.462 389 161 389V361H189Z" fill="black"/>
<path d="M133 426C135.495 426 137.966 425.521 140.271 424.592C142.576 423.662 144.671 422.299 146.435 420.581C148.199 418.864 149.599 416.824 150.554 414.58C151.509 412.335 152 409.929 152 407.5C152 405.071 151.509 402.665 150.554 400.42C149.599 398.176 148.199 396.136 146.435 394.419C144.671 392.701 142.576 391.338 140.271 390.408C137.966 389.479 135.495 389 133 389L133 407.5L133 426Z" fill="#0455C0"/>
<path d="M217.5 410L229.191 430.25H205.809L217.5 410Z" fill="black"/>
<path d="M225 398L237.124 418.25H212.876L225 398Z" fill="black"/>
<path d="M210.5 398L222 418H199L210.5 398Z" fill="black"/>
<defs>
<filter id="filter0_d_8_85" x="81" y="300" width="234" height="234" filterUnits="userSpaceOnUse" color-interpolation-filters="sRGB">
<feFlood flood-opacity="0" result="BackgroundImageFix"/>
<feColorMatrix in="SourceAlpha" type="matrix" values="0 0 0 0 0 0 0 0 0 0 0 0 0 0 0 0 0 0 127 0" result="hardAlpha"/>
<feOffset dx="11" dy="11"/>
<feGaussianBlur stdDeviation="10"/>
<feComposite in2="hardAlpha" operator="out"/>
<feColorMatrix type="matrix" values="0 0 0 0 0 0 0 0 0 0 0 0 0 0 0 0 0 0 0.25 0"/>
<feBlend mode="normal" in2="BackgroundImageFix" result="effect1_dropShadow_8_85"/>
<feBlend mode="normal" in="SourceGraphic" in2="effect1_dropShadow_8_85" result="shape"/>
</filter>
</defs>
</svg>
